<?xml version="1.0" encoding="UTF-8" standalone="no"?>
<!-- Created with Inkscape (http://www.inkscape.org/) -->
<svg xmlns:dc="http://purl.org/dc/elements/1.1/" xmlns:cc="http://creativecommons.org/ns#" xmlns:rdf="http://www.w3.org/1999/02/22-rdf-syntax-ns#" xmlns:svg="http://www.w3.org/2000/svg" xmlns="http://www.w3.org/2000/svg" xmlns:xlink="http://www.w3.org/1999/xlink" version="1.1" width="17.016733" height="17.123735" id="svg7686">
  <defs id="defs7688">
    <radialGradient cx="375.09409" cy="137.9821" r="1.111868" fx="375.09409" fy="137.9821" id="radialGradient7818" xlink:href="#linearGradient7812" gradientUnits="userSpaceOnUse"/>
    <linearGradient id="linearGradient7812">
      <stop id="stop7814" style="stop-color:#000000;stop-opacity:1" offset="0"/>
      <stop id="stop7816" style="stop-color:#000000;stop-opacity:0" offset="1"/>
    </linearGradient>
    <radialGradient cx="375.09409" cy="137.9821" r="1.111868" fx="375.09409" fy="137.9821" id="radialGradient7802" xlink:href="#linearGradient7796" gradientUnits="userSpaceOnUse"/>
    <linearGradient id="linearGradient7796">
      <stop id="stop7798" style="stop-color:#000000;stop-opacity:1" offset="0"/>
      <stop id="stop7800" style="stop-color:#000000;stop-opacity:0" offset="1"/>
    </linearGradient>
    <radialGradient cx="375.09409" cy="137.9821" r="1.111868" fx="375.09409" fy="137.9821" id="radialGradient7826" xlink:href="#linearGradient7820" gradientUnits="userSpaceOnUse"/>
    <linearGradient id="linearGradient7820">
      <stop id="stop7822" style="stop-color:#000000;stop-opacity:1" offset="0"/>
      <stop id="stop7824" style="stop-color:#000000;stop-opacity:0" offset="1"/>
    </linearGradient>
    <radialGradient cx="375.09409" cy="137.9821" r="1.111868" fx="375.09409" fy="137.9821" id="radialGradient7834" xlink:href="#linearGradient7828" gradientUnits="userSpaceOnUse"/>
    <linearGradient id="linearGradient7828">
      <stop id="stop7830" style="stop-color:#000000;stop-opacity:1" offset="0"/>
      <stop id="stop7832" style="stop-color:#000000;stop-opacity:0" offset="1"/>
    </linearGradient>
    <radialGradient cx="375.09409" cy="137.9821" r="1.111868" fx="375.09409" fy="137.9821" id="radialGradient7810" xlink:href="#linearGradient7804" gradientUnits="userSpaceOnUse"/>
    <linearGradient id="linearGradient7804">
      <stop id="stop7806" style="stop-color:#000000;stop-opacity:1" offset="0"/>
      <stop id="stop7808" style="stop-color:#000000;stop-opacity:0" offset="1"/>
    </linearGradient>
    <radialGradient cx="375.09409" cy="137.9821" r="1.111868" fx="375.09409" fy="137.9821" id="radialGradient7794" xlink:href="#linearGradient7788" gradientUnits="userSpaceOnUse"/>
    <linearGradient id="linearGradient7788">
      <stop id="stop7790" style="stop-color:#000000;stop-opacity:1" offset="0"/>
      <stop id="stop7792" style="stop-color:#000000;stop-opacity:0" offset="1"/>
    </linearGradient>
    <radialGradient cx="375.09409" cy="137.9821" r="1.111868" fx="375.09409" fy="137.9821" id="radialGradient7842" xlink:href="#linearGradient7836" gradientUnits="userSpaceOnUse"/>
    <linearGradient id="linearGradient7836">
      <stop id="stop7838" style="stop-color:#000000;stop-opacity:1" offset="0"/>
      <stop id="stop7840" style="stop-color:#000000;stop-opacity:0" offset="1"/>
    </linearGradient>
    <radialGradient cx="375.09409" cy="137.9821" r="1.111868" fx="375.09409" fy="137.9821" id="radialGradient7786" xlink:href="#linearGradient7780" gradientUnits="userSpaceOnUse"/>
    <linearGradient id="linearGradient7780">
      <stop id="stop7782" style="stop-color:#000000;stop-opacity:1" offset="0"/>
      <stop id="stop7784" style="stop-color:#000000;stop-opacity:0" offset="1"/>
    </linearGradient>
    <radialGradient cx="375.09409" cy="137.9821" r="1.111868" fx="375.09409" fy="137.9821" id="radialGradient7778" xlink:href="#linearGradient7772" gradientUnits="userSpaceOnUse"/>
    <linearGradient id="linearGradient7772">
      <stop id="stop7774" style="stop-color:#000000;stop-opacity:1" offset="0"/>
      <stop id="stop7776" style="stop-color:#000000;stop-opacity:0" offset="1"/>
    </linearGradient>
    <radialGradient cx="375.09409" cy="137.9821" r="1.111868" fx="375.09409" fy="137.9821" id="radialGradient7766" xlink:href="#linearGradient7772" gradientUnits="userSpaceOnUse"/>
  </defs>
  <metadata id="metadata7691">
    <rdf:RDF>
      <cc:Work rdf:about="">
        <dc:format>image/svg+xml</dc:format>
        <dc:type rdf:resource="http://purl.org/dc/dcmitype/StillImage"/>
        <dc:title/>
      </cc:Work>
    </rdf:RDF>
  </metadata>
  <g transform="translate(-345.77735,-518.06993)" id="layer1">
    <path d="m 376.20595,137.9821 a 1.111868,1.111868 0 1 1 -2.22373,0 1.111868,1.111868 0 1 1 2.22373,0 z" transform="matrix(1.20571,0,0,1.20571,-103.87571,354.22677)" id="path7657" style="color:#000000;fill:url(#easyAnnotatorBtnGradient) #447799;fill-opacity:1;fill-rule:nonzero;stroke:#ffffff;stroke-width:0.27735791;marker:none;visibility:visible;display:inline"/>
    <path d="m 376.20595,137.9821 a 1.111868,1.111868 0 1 1 -2.22373,0 1.111868,1.111868 0 1 1 2.22373,0 z" transform="matrix(1.188922,0,0,1.188922,-88.7169,356.54334)" id="use7660" style="color:#000000;fill:url(#easyAnnotatorBtnGradient) #447799;fill-opacity:1;fill-rule:nonzero;stroke:#ffffff;stroke-width:0.27735791;marker:none;visibility:visible;display:inline"/>
    <path d="m 376.20595,137.9821 a 1.111868,1.111868 0 1 1 -2.22373,0 1.111868,1.111868 0 1 1 2.22373,0 z" transform="matrix(1.180543,0,0,1.180543,-82.62048,360.72675)" id="use7662" style="color:#000000;fill:url(#easyAnnotatorBtnGradient) #447799;fill-opacity:1;fill-rule:nonzero;stroke:#ffffff;stroke-width:0.27735791;marker:none;visibility:visible;display:inline"/>
    <path d="m 376.20595,137.9821 a 1.111868,1.111868 0 1 1 -2.22373,0 1.111868,1.111868 0 1 1 2.22373,0 z" transform="matrix(1.088184,0,0,1.088184,-47.97725,376.49797)" id="use7664" style="color:#000000;fill:url(#easyAnnotatorBtnGradient) #447799;fill-opacity:1;fill-rule:nonzero;stroke:#ffffff;stroke-width:0.27735791;marker:none;visibility:visible;display:inline"/>
    <path d="m 376.20595,137.9821 a 1.111868,1.111868 0 1 1 -2.22373,0 1.111868,1.111868 0 1 1 2.22373,0 z" transform="matrix(1.188915,0,0,1.188915,-94.62226,356.54416)" id="use7666" style="color:#000000;fill:url(#easyAnnotatorBtnGradient) #447799;fill-opacity:1;fill-rule:nonzero;stroke:#ffffff;stroke-width:0.27735791;marker:none;visibility:visible;display:inline"/>
    <path d="m 376.20595,137.9821 a 1.111868,1.111868 0 1 1 -2.22373,0 1.111868,1.111868 0 1 1 2.22373,0 z" transform="matrix(1.20571,0,0,1.20571,-92.06053,354.22677)" id="use7668" style="color:#000000;fill:url(#easyAnnotatorBtnGradient) #447799;fill-opacity:1;fill-rule:nonzero;stroke:#ffffff;stroke-width:0.27735791;marker:none;visibility:visible;display:inline"/>
    <path d="m 376.20595,137.9821 a 1.111868,1.111868 0 1 1 -2.22373,0 1.111868,1.111868 0 1 1 2.22373,0 z" transform="matrix(1.093412,0,0,1.093412,-61.75341,375.77661)" id="use7670" style="color:#000000;fill:url(#easyAnnotatorBtnGradient) #447799;fill-opacity:1;fill-rule:nonzero;stroke:#ffffff;stroke-width:0.27735791;marker:none;visibility:visible;display:inline"/>
    <path d="m 376.20595,137.9821 a 1.111868,1.111868 0 1 1 -2.22373,0 1.111868,1.111868 0 1 1 2.22373,0 z" transform="matrix(1.184974,0,0,1.184974,-96.09788,366.17004)" id="use7672" style="color:#000000;fill:url(#easyAnnotatorBtnGradient) #447799;fill-opacity:1;fill-rule:nonzero;stroke:#ffffff;stroke-width:0.27735791;marker:none;visibility:visible;display:inline"/>
    <path d="m 376.20595,137.9821 a 1.111868,1.111868 0 1 1 -2.22373,0 1.111868,1.111868 0 1 1 2.22373,0 z" transform="matrix(1.111722,0,0,1.111722,-62.71379,367.19541)" id="use7674" style="color:#000000;fill:url(#easyAnnotatorBtnGradient) #447799;fill-opacity:1;fill-rule:nonzero;stroke:#ffffff;stroke-width:0.27735791;marker:none;visibility:visible;display:inline"/>
    <path d="m 376.20595,137.9821 a 1.111868,1.111868 0 1 1 -2.22373,0 1.111868,1.111868 0 1 1 2.22373,0 z" transform="matrix(1.181829,0,0,1.181829,-94.91797,360.54933)" id="use7676" style="color:#000000;fill:url(#easyAnnotatorBtnGradient) #447799;fill-opacity:1;fill-rule:nonzero;stroke:#ffffff;stroke-width:0.27735791;marker:none;visibility:visible;display:inline"/>
    <path d="m 376.20595,137.9821 a 1.111868,1.111868 0 1 1 -2.22373,0 1.111868,1.111868 0 1 1 2.22373,0 z" transform="matrix(1.485788,0,0,1.485788,-205.97779,318.60838)" id="use7678" style="color:#000000;fill:url(#radialGradient7818);fill-opacity:1;fill-rule:nonzero;stroke:none;stroke-width:0.27735791;marker:none;visibility:visible;display:inline"/>
    <path d="m 376.20595,137.9821 a 1.111868,1.111868 0 1 1 -2.22373,0 1.111868,1.111868 0 1 1 2.22373,0 z" transform="matrix(1.485788,0,0,1.485788,-205.97709,324.66317)" id="use7680" style="color:#000000;fill:url(#radialGradient7802);fill-opacity:1;fill-rule:nonzero;stroke:none;stroke-width:0.27735791;marker:none;visibility:visible;display:inline"/>
    <path d="m 376.20595,137.9821 a 1.111868,1.111868 0 1 1 -2.22373,0 1.111868,1.111868 0 1 1 2.22373,0 z" transform="matrix(1.485788,0,0,1.485788,-203.02379,318.60835)" id="use7682" style="color:#000000;fill:url(#radialGradient7826);fill-opacity:1;fill-rule:nonzero;stroke:none;stroke-width:0.27735791;marker:none;visibility:visible;display:inline"/>
    <path d="m 376.20595,137.9821 a 1.111868,1.111868 0 1 1 -2.22373,0 1.111868,1.111868 0 1 1 2.22373,0 z" transform="matrix(1.485788,0,0,1.485788,-200.06999,318.60837)" id="use7684" style="color:#000000;fill:url(#radialGradient7834);fill-opacity:1;fill-rule:nonzero;stroke:none;stroke-width:0.27735791;marker:none;visibility:visible;display:inline"/>
    <path d="m 376.20595,137.9821 a 1.111868,1.111868 0 1 1 -2.22373,0 1.111868,1.111868 0 1 1 2.22373,0 z" transform="matrix(1.485788,0,0,1.485788,-205.97789,321.63572)" id="use7686" style="color:#000000;fill:url(#radialGradient7810);fill-opacity:1;fill-rule:nonzero;stroke:none;stroke-width:0.27735791;marker:none;visibility:visible;display:inline"/>
    <path d="m 376.20595,137.9821 a 1.111868,1.111868 0 1 1 -2.22373,0 1.111868,1.111868 0 1 1 2.22373,0 z" transform="matrix(1.4858,0,0,1.4858,-203.02749,324.66177)" id="use7688" style="color:#000000;fill:url(#radialGradient7794);fill-opacity:1;fill-rule:nonzero;stroke:none;stroke-width:0.27735791;marker:none;visibility:visible;display:inline"/>
    <path d="m 376.20595,137.9821 a 1.111868,1.111868 0 1 1 -2.22373,0 1.111868,1.111868 0 1 1 2.22373,0 z" transform="matrix(1.485788,0,0,1.485788,-200.06979,321.63578)" id="use7692" style="color:#000000;fill:url(#radialGradient7842);fill-opacity:1;fill-rule:nonzero;stroke:none;stroke-width:0.27735791;marker:none;visibility:visible;display:inline"/>
    <path d="m 376.20595,137.9821 a 1.111868,1.111868 0 1 1 -2.22373,0 1.111868,1.111868 0 1 1 2.22373,0 z" transform="matrix(1.492675,0,0,1.492675,-202.65309,323.71288)" id="use7694" style="color:#000000;fill:url(#radialGradient7786);fill-opacity:1;fill-rule:nonzero;stroke:none;stroke-width:0.27735791;marker:none;visibility:visible;display:inline"/>
    <path d="m 376.20595,137.9821 a 1.111868,1.111868 0 1 1 -2.22373,0 1.111868,1.111868 0 1 1 2.22373,0 z" transform="matrix(1.191739,0,0,1.191739,-89.77399,368.26392)" id="use7696" style="color:#000000;fill:url(#easyAnnotatorBtnGradient) #447799;fill-opacity:1;fill-rule:nonzero;stroke:#ffffff;stroke-width:0.27735791;marker:none;visibility:visible;display:inline"/>
    <path d="m 376.20595,137.9821 a 1.111868,1.111868 0 1 1 -2.22373,0 1.111868,1.111868 0 1 1 2.22373,0 z" transform="matrix(1.181973,0,0,1.181973,-83.15681,366.58419)" id="use7698" style="color:#000000;fill:url(#easyAnnotatorBtnGradient) #447799;fill-opacity:1;fill-rule:nonzero;stroke:#ffffff;stroke-width:0.27735791;marker:none;visibility:visible;display:inline"/>
    <path d="m 376.20595,137.9821 a 1.111868,1.111868 0 1 1 -2.22373,0 1.111868,1.111868 0 1 1 2.22373,0 z" transform="matrix(1.20571,0,0,1.20571,-103.87571,366.33623)" id="use7700" style="color:#000000;fill:url(#easyAnnotatorBtnGradient) #447799;fill-opacity:1;fill-rule:nonzero;stroke:#ffffff;stroke-width:0.27735791;marker:none;visibility:visible;display:inline"/>
    <path d="m 376.20595,137.9821 a 1.111868,1.111868 0 1 1 -2.22373,0 1.111868,1.111868 0 1 1 2.22373,0 z" transform="matrix(1.193386,0,0,1.193386,-96.2994,368.03664)" id="use7702" style="color:#000000;fill:url(#easyAnnotatorBtnGradient) #447799;fill-opacity:1;fill-rule:nonzero;stroke:#ffffff;stroke-width:0.27735791;marker:none;visibility:visible;display:inline"/>
    <path d="m 376.20595,137.9821 a 1.111868,1.111868 0 1 1 -2.22373,0 1.111868,1.111868 0 1 1 2.22373,0 z" transform="matrix(1.121575,0,0,1.121575,-66.40938,377.94542)" id="use7704" style="color:#000000;fill:url(#easyAnnotatorBtnGradient) #447799;fill-opacity:1;fill-rule:nonzero;stroke:#ffffff;stroke-width:0.27735791;marker:none;visibility:visible;display:inline"/>
    <path d="m 376.20595,137.9821 a 1.111868,1.111868 0 1 1 -2.22373,0 1.111868,1.111868 0 1 1 2.22373,0 z" transform="matrix(1.20571,0,0,1.20571,-92.06053,366.33623)" id="use7706" style="color:#000000;fill:url(#easyAnnotatorBtnGradient) #447799;fill-opacity:1;fill-rule:nonzero;stroke:#ffffff;stroke-width:0.27735791;marker:none;visibility:visible;display:inline"/>
    <path d="m 376.20595,137.9821 a 1.111868,1.111868 0 1 1 -2.22373,0 1.111868,1.111868 0 1 1 2.22373,0 z" transform="matrix(6.75293,0,0,6.75293,-2178.6984,-405.13589)" id="use7690" style="color:#000000;fill:url(#radialGradient7766);fill-opacity:1;fill-rule:nonzero;stroke:none;stroke-width:0.27735791;marker:none;visibility:visible;display:inline"/>
  </g>
</svg>